<svg width="34" height="35" viewBox="0 0 34 35" fill="none" xmlns="http://www.w3.org/2000/svg">
<path d="M13.0678 20.114C12.5815 20.114 12.1703 19.9459 11.8341 19.6097C11.498 19.2736 11.3303 18.8628 11.3313 18.3775C11.3322 17.8922 11.5003 17.481 11.8355 17.1439C12.1708 16.8068 12.5815 16.6391 13.0678 16.641C13.554 16.6428 13.9652 16.8109 14.3014 17.1453C14.6376 17.4796 14.8052 17.8904 14.8043 18.3775C14.8034 18.8647 14.6353 19.2759 14.3 19.6111C13.9647 19.9464 13.554 20.114 13.0678 20.114ZM21.4031 20.114C20.9168 20.114 20.5056 19.9459 20.1694 19.6097C19.8333 19.2736 19.6656 18.8628 19.6665 18.3775C19.6675 17.8922 19.8356 17.481 20.1708 17.1439C20.5061 16.8068 20.9168 16.6391 21.4031 16.641C21.8893 16.6428 22.3005 16.8109 22.6367 17.1453C22.9729 17.4796 23.1405 17.8904 23.1396 18.3775C23.1387 18.8647 22.9706 19.2759 22.6353 19.6111C22.3 19.9464 21.8893 20.114 21.4031 20.114ZM17.2354 28.102C20.338 28.102 22.9659 27.0254 25.1192 24.8721C27.2725 22.7188 28.3491 20.0909 28.3491 16.9883C28.3491 16.4326 28.3144 15.8945 28.245 15.374C28.1755 14.8535 28.0481 14.3497 27.8629 13.8626C27.3767 13.9783 26.8905 14.0654 26.4042 14.1237C25.918 14.1821 25.4086 14.2108 24.8761 14.2099C22.7691 14.2099 20.7779 13.7584 18.9025 12.8554C17.027 11.9524 15.4294 10.6905 14.1097 9.06977C13.3688 10.8757 12.3097 12.4446 10.9325 13.7764C9.55537 15.1082 7.95175 16.1094 6.12169 16.7799V16.9883C6.12169 20.0909 7.19834 22.7188 9.35162 24.8721C11.5049 27.0254 14.1328 28.102 17.2354 28.102ZM17.2354 30.8805C15.3137 30.8805 13.5077 30.516 11.8175 29.7871C10.1273 29.0583 8.65701 28.0682 7.40672 26.817C6.15642 25.5658 5.16684 24.0955 4.43797 22.4062C3.70909 20.7169 3.34419 18.911 3.34326 16.9883C3.34234 15.0656 3.70724 13.2596 4.43797 11.5704C5.16869 9.88107 6.15828 8.41081 7.40672 7.15959C8.65516 5.90837 10.1254 4.91879 11.8175 4.19084C13.5095 3.46289 15.3155 3.09799 17.2354 3.09614C19.1553 3.09429 20.9613 3.45919 22.6534 4.19084C24.3454 4.92249 25.8157 5.91208 27.0641 7.15959C28.3126 8.40711 29.3026 9.87736 30.0343 11.5704C30.7659 13.2633 31.1304 15.0693 31.1276 16.9883C31.1248 18.9073 30.7599 20.7132 30.0329 22.4062C29.3058 24.0992 28.3163 25.5695 27.0641 26.817C25.812 28.0645 24.3417 29.0546 22.6534 29.7871C20.965 30.5197 19.159 30.8842 17.2354 30.8805Z" fill="black"/>
</svg>
